<svg xmlns="http://www.w3.org/2000/svg" width="324.55" height="207.688"><path d="M128.813 0c-1.014.023-2.042.11-3.094.22-23.22 2.4-49.547 23.63-69.75 53.436.322 0 .644.01.968 0 16.892-23.532 38.168-39.998 57.03-41.812H114C144.2 8.932 155.916 47.502 140.188 98c-4.607 14.79-10.99 28.692-18.438 40.97V90.78H94.906v58.095c10.375 2.954 24.14 6.22 36 6.844 3.9-5.996 7.614-12.373 11.03-19.064 4.126 16.63 18.076 26.47 38.314 26.47 8.157 0 15.74-1.02 20.03-3.095l-2.81-19.593c-3.416 1.328-7.13 1.938-11.72 1.938-9.502 0-17.656-5.63-17.656-17.5-.145-10.532 6.97-17.375 16.906-17.375 5.493 0 9.032.743 11.563 1.78l3.718-19.56c-5.185-1.78-11.586-2.532-16.78-2.532-10.08 0-18.375 2.256-24.906 6.062 14.3-53.745 1.65-93.957-29.78-93.25zm-20.407 57.844c-7.47 0-12.55 4.328-13.5 10.593-43.677-13.63-84.84-5.634-93.344 18.75C-7.262 112.5 22.448 145.89 67.94 161.75c10.272 3.583 20.483 5.936 30.218 7.188-12.937 12.337-26.742 19.593-39.22 19.312-18.845-.426-30.397-16.707-32.248-40.844-1.15-.706-2.273-1.416-3.375-2.156C21.58 181.085 35.599 206.745 61 207.656c20.97.758 45.226-17.054 65.094-44.844-3.47-.238-8.606-.676-13.625-1.375-7.745-1.09-15.278-2.64-17.564-3.125-6.232-1.2-12.61-2.886-19.03-5.125-40.49-14.116-66.95-43.815-59.095-66.343C24.023 66.07 57.908 58.68 94.876 68.72c-.076.612-.125 1.226-.125 1.874 0 6.972 5.194 12.625 13.5 12.625h.156c8.306 0 13.625-5.654 13.625-12.626-.148-7.416-5.318-12.75-13.624-12.75zM256.5 87.03c-12.616 0-18.982 7.133-21.656 10.845h-.594l-1.063-9.22h-22.375c.29 6.83.594 15.146.594 24.94v48.06h25.938V119.97c0-1.78.16-3.69.75-5.47 1.037-2.376 3.412-5.938 8.156-5.938 6.086 0 8.625 5.314 8.625 13.47v39.624h25.938v-41.53c0-1.635.154-3.863.75-5.345 1.182-3.566 3.847-6.218 8.156-6.218 5.925 0 8.592 5.177 8.592 14.22v38.874h25.97V118.78c0-20.323-9.063-31.75-24.782-31.75-4.895 0-9.194 1.046-12.906 2.97-3.858 2.078-7.276 4.892-10.094 8.75h-.28c-3.118-7.417-10.38-11.72-19.72-11.72z" fill="#008b76"/></svg>